<svg width="37" height="37" viewBox="0 0 37 37" fill="none" xmlns="http://www.w3.org/2000/svg">
<path d="M29.3667 32.4094L25.9167 16.6927L32.625 9.98437C35.5 7.10937 36.4583 3.27604 35.5 1.35937C33.5833 0.401042 29.75 1.35937 26.875 4.23437L20.1667 10.9427L4.45 7.49271C3.49167 7.30104 2.725 7.68437 2.34167 8.45104L1.76667 9.40937C1.38333 10.3677 1.575 11.326 2.34167 11.901L12.5 18.6094L8.66667 24.3594H2.91667L1 26.276L6.75 30.1094L10.5833 35.8594L12.5 33.9427V28.1927L18.25 24.3594L24.9583 34.5177C25.5333 35.2844 26.4917 35.476 27.45 35.0927L28.4083 34.7094C29.175 34.1344 29.5583 33.3677 29.3667 32.4094Z" stroke="#0A3078" stroke-width="2" stroke-linecap="round" stroke-linejoin="round"/>
</svg>
