<svg width="32" height="41" viewBox="0 0 32 41" fill="none" xmlns="http://www.w3.org/2000/svg">
<path d="M23 5.85422V4.3125C23 3.16875 22.5456 2.07185 21.7369 1.2631C20.9281 0.454351 19.8312 0 18.6875 0H12.9375C11.7938 0 10.6969 0.454351 9.8881 1.2631C9.07935 2.07185 8.625 3.16875 8.625 4.3125V5.85422C6.23171 6.20305 4.04366 7.40089 2.46023 9.22909C0.876807 11.0573 0.00360146 13.3939 0 15.8125V37.375C0 38.1375 0.302901 38.8688 0.842068 39.4079C1.38123 39.9471 2.1125 40.25 2.875 40.25H28.75C29.5125 40.25 30.2438 39.9471 30.7829 39.4079C31.3221 38.8688 31.625 38.1375 31.625 37.375V15.8125C31.6214 13.3939 30.7482 11.0573 29.1648 9.22909C27.5813 7.40089 25.3933 6.20305 23 5.85422ZM12.9375 2.875H18.6875C19.0687 2.875 19.4344 3.02645 19.704 3.29603C19.9736 3.56562 20.125 3.93125 20.125 4.3125V5.75H11.5V4.3125C11.5 3.93125 11.6515 3.56562 11.921 3.29603C12.1906 3.02645 12.5563 2.875 12.9375 2.875ZM23 27.3125H8.625V25.875C8.625 25.4938 8.77645 25.1281 9.04603 24.8585C9.31562 24.5889 9.68125 24.4375 10.0625 24.4375H21.5625C21.9437 24.4375 22.3094 24.5889 22.579 24.8585C22.8486 25.1281 23 25.4938 23 25.875V27.3125ZM8.625 30.1875H17.25V31.625C17.25 32.0062 17.4014 32.3719 17.671 32.6415C17.9406 32.911 18.3063 33.0625 18.6875 33.0625C19.0687 33.0625 19.4344 32.911 19.704 32.6415C19.9736 32.3719 20.125 32.0062 20.125 31.625V30.1875H23V37.375H8.625V30.1875ZM28.75 37.375H25.875V25.875C25.875 24.7313 25.4206 23.6344 24.6119 22.8256C23.8031 22.0169 22.7062 21.5625 21.5625 21.5625H10.0625C8.91875 21.5625 7.82185 22.0169 7.0131 22.8256C6.20435 23.6344 5.75 24.7313 5.75 25.875V37.375H2.875V15.8125C2.875 13.9063 3.63225 12.0781 4.98017 10.7302C6.32809 9.38225 8.15626 8.625 10.0625 8.625H21.5625C23.4687 8.625 25.2969 9.38225 26.6448 10.7302C27.9927 12.0781 28.75 13.9063 28.75 15.8125V37.375ZM20.125 14.375C20.125 14.7562 19.9736 15.1219 19.704 15.3915C19.4344 15.661 19.0687 15.8125 18.6875 15.8125H12.9375C12.5563 15.8125 12.1906 15.661 11.921 15.3915C11.6515 15.1219 11.5 14.7562 11.5 14.375C11.5 13.9938 11.6515 13.6281 11.921 13.3585C12.1906 13.089 12.5563 12.9375 12.9375 12.9375H18.6875C19.0687 12.9375 19.4344 13.089 19.704 13.3585C19.9736 13.6281 20.125 13.9938 20.125 14.375Z" fill="#BF3704"/>
</svg>
