<svg width="38" height="38" viewBox="0 0 38 38" fill="none" xmlns="http://www.w3.org/2000/svg">
<path fill-rule="evenodd" clip-rule="evenodd" d="M13.9521 0.420402C14.2213 0.689934 14.3725 1.0553 14.3725 1.43624C14.3725 1.81717 14.2213 2.18254 13.9521 2.45207L4.9054 11.4987H24.4362C27.8675 11.4987 31.1582 12.8618 33.5844 15.288C36.0107 17.7143 37.3737 21.005 37.3737 24.4362C37.3737 27.8675 36.0107 31.1582 33.5844 33.5844C31.1582 36.0107 27.8675 37.3737 24.4362 37.3737H18.6862C18.305 37.3737 17.9394 37.2223 17.6698 36.9527C17.4002 36.6831 17.2487 36.3175 17.2487 35.9362C17.2487 35.555 17.4002 35.1894 17.6698 34.9198C17.9394 34.6502 18.305 34.4987 18.6862 34.4987H24.4362C25.7577 34.4987 27.0661 34.2385 28.287 33.7328C29.5078 33.2271 30.6171 32.4859 31.5515 31.5515C32.4859 30.6171 33.2271 29.5078 33.7328 28.287C34.2385 27.0661 34.4987 25.7577 34.4987 24.4362C34.4987 23.1148 34.2385 21.8063 33.7328 20.5855C33.2271 19.3646 32.4859 18.2554 31.5515 17.321C30.6171 16.3866 29.5078 15.6454 28.287 15.1397C27.0661 14.634 25.7577 14.3737 24.4362 14.3737H4.9054L13.9521 23.4204C14.0933 23.552 14.2066 23.7107 14.2851 23.887C14.3637 24.0634 14.406 24.2537 14.4094 24.4467C14.4128 24.6397 14.3773 24.8315 14.305 25.0105C14.2327 25.1895 14.1251 25.3521 13.9886 25.4886C13.8521 25.6251 13.6895 25.7327 13.5105 25.805C13.3315 25.8773 13.1397 25.9128 12.9467 25.9094C12.7537 25.906 12.5634 25.8637 12.387 25.7851C12.2107 25.7066 12.052 25.5933 11.9204 25.4521L0.420402 13.9521C0.151205 13.6825 0 13.3172 0 12.9362C0 12.5553 0.151205 12.1899 0.420402 11.9204L11.9204 0.420402C12.1899 0.151205 12.5553 0 12.9362 0C13.3172 0 13.6825 0.151205 13.9521 0.420402Z" fill="black"/>
</svg>
