<svg width="27" height="29" viewBox="0 0 27 29" fill="none" xmlns="http://www.w3.org/2000/svg">
<path opacity="0.2" d="M25.1562 4.375V9.84375H1.09375V4.375C1.09375 4.08492 1.20898 3.80672 1.4141 3.6016C1.61922 3.39648 1.89742 3.28125 2.1875 3.28125H24.0625C24.3526 3.28125 24.6308 3.39648 24.8359 3.6016C25.041 3.80672 25.1562 4.08492 25.1562 4.375Z" fill="black"/>
<path d="M24.0625 2.1875H20.7812V1.09375C20.7812 0.803669 20.666 0.52547 20.4609 0.320352C20.2558 0.115234 19.9776 0 19.6875 0C19.3974 0 19.1192 0.115234 18.9141 0.320352C18.709 0.52547 18.5938 0.803669 18.5938 1.09375V2.1875H7.65625V1.09375C7.65625 0.803669 7.54102 0.52547 7.3359 0.320352C7.13078 0.115234 6.85258 0 6.5625 0C6.27242 0 5.99422 0.115234 5.7891 0.320352C5.58398 0.52547 5.46875 0.803669 5.46875 1.09375V2.1875H2.1875C1.60734 2.1875 1.05094 2.41797 0.640704 2.8282C0.230468 3.23844 0 3.79484 0 4.375V26.25C0 26.8302 0.230468 27.3866 0.640704 27.7968C1.05094 28.207 1.60734 28.4375 2.1875 28.4375H24.0625C24.6427 28.4375 25.1991 28.207 25.6093 27.7968C26.0195 27.3866 26.25 26.8302 26.25 26.25V4.375C26.25 3.79484 26.0195 3.23844 25.6093 2.8282C25.1991 2.41797 24.6427 2.1875 24.0625 2.1875ZM5.46875 4.375V5.46875C5.46875 5.75883 5.58398 6.03703 5.7891 6.24215C5.99422 6.44727 6.27242 6.5625 6.5625 6.5625C6.85258 6.5625 7.13078 6.44727 7.3359 6.24215C7.54102 6.03703 7.65625 5.75883 7.65625 5.46875V4.375H18.5938V5.46875C18.5938 5.75883 18.709 6.03703 18.9141 6.24215C19.1192 6.44727 19.3974 6.5625 19.6875 6.5625C19.9776 6.5625 20.2558 6.44727 20.4609 6.24215C20.666 6.03703 20.7812 5.75883 20.7812 5.46875V4.375H24.0625V8.75H2.1875V4.375H5.46875ZM24.0625 26.25H2.1875V10.9375H24.0625V26.25ZM17.5 18.5938C17.5 18.8838 17.3848 19.162 17.1796 19.3671C16.9745 19.5723 16.6963 19.6875 16.4062 19.6875H14.2188V21.875C14.2188 22.1651 14.1035 22.4433 13.8984 22.6484C13.6933 22.8535 13.4151 22.9688 13.125 22.9688C12.8349 22.9688 12.5567 22.8535 12.3516 22.6484C12.1465 22.4433 12.0312 22.1651 12.0312 21.875V19.6875H9.84375C9.55367 19.6875 9.27547 19.5723 9.07035 19.3671C8.86523 19.162 8.75 18.8838 8.75 18.5938C8.75 18.3037 8.86523 18.0255 9.07035 17.8204C9.27547 17.6152 9.55367 17.5 9.84375 17.5H12.0312V15.3125C12.0312 15.0224 12.1465 14.7442 12.3516 14.5391C12.5567 14.334 12.8349 14.2188 13.125 14.2188C13.4151 14.2188 13.6933 14.334 13.8984 14.5391C14.1035 14.7442 14.2188 15.0224 14.2188 15.3125V17.5H16.4062C16.6963 17.5 16.9745 17.6152 17.1796 17.8204C17.3848 18.0255 17.5 18.3037 17.5 18.5938Z" fill="black"/>
</svg>
