<svg width="48" height="48" viewBox="0 0 48 48" fill="none" xmlns="http://www.w3.org/2000/svg">
<path d="M46.6899 8.9165L41.189 33.9722H12.4204L6.92041 8.9165H46.6899Z" stroke="#BF3704" stroke-width="0.5"/>
<path d="M1 1H4.92683L6.60976 8.66667M6.60976 8.66667L12.2195 34.2222H41.3902L47 8.66667H6.60976Z" stroke="#BF3704" stroke-width="2" stroke-linecap="round" stroke-linejoin="round"/>
<path d="M12.2194 47.0002C14.0783 47.0002 15.5852 45.2839 15.5852 43.1668C15.5852 41.0497 14.0783 39.3335 12.2194 39.3335C10.3605 39.3335 8.85352 41.0497 8.85352 43.1668C8.85352 45.2839 10.3605 47.0002 12.2194 47.0002Z" stroke="#BF3704" stroke-width="2" stroke-linecap="round" stroke-linejoin="round"/>
<path d="M41.3903 47.0002C43.2492 47.0002 44.7561 45.2839 44.7561 43.1668C44.7561 41.0497 43.2492 39.3335 41.3903 39.3335C39.5314 39.3335 38.0244 41.0497 38.0244 43.1668C38.0244 45.2839 39.5314 47.0002 41.3903 47.0002Z" stroke="#BF3704" stroke-width="2" stroke-linecap="round" stroke-linejoin="round"/>
</svg>
