<svg width="60" height="60" viewBox="0 0 60 60" fill="none" xmlns="http://www.w3.org/2000/svg">
<path d="M30 0C13.431 0 -3.8147e-06 13.431 -3.8147e-06 30C-3.8147e-06 46.569 13.431 60 30 60C34.8533 60.0064 39.6352 58.8305 43.932 56.574L56.802 59.925C57.232 60.037 57.6839 60.0347 58.1127 59.9183C58.5416 59.8019 58.9326 59.5754 59.247 59.2613C59.5613 58.9472 59.7882 58.5565 59.905 58.1277C60.0218 57.699 60.0246 57.2471 59.913 56.817L56.565 43.95C58.8275 39.6486 60.0066 34.8602 60 30C60 13.431 46.569 0 30 0Z" fill="url(#paint0_radial_9770_96)"/>
<path d="M26.2442 33H39.7502L40.0562 33.021C40.5948 33.0951 41.0883 33.3617 41.4455 33.7714C41.8027 34.1812 41.9995 34.7064 41.9995 35.25C41.9995 35.7936 41.8027 36.3188 41.4455 36.7286C41.0883 37.1383 40.5948 37.4049 40.0562 37.479L39.7502 37.5H26.2442L25.9412 37.479C25.4027 37.4049 24.9092 37.1383 24.552 36.7286C24.1947 36.3188 23.9979 35.7936 23.9979 35.25C23.9979 34.7064 24.1947 34.1812 24.552 33.7714C24.9092 33.3617 25.4027 33.0951 25.9412 33.021L26.2442 33ZM20.2502 22.5H39.7502L40.0562 22.521C40.5948 22.5951 41.0883 22.8617 41.4455 23.2714C41.8027 23.6812 41.9995 24.2064 41.9995 24.75C41.9995 25.2936 41.8027 25.8188 41.4455 26.2286C41.0883 26.6383 40.5948 26.9049 40.0562 26.979L39.7502 27H20.2502L19.9442 26.979C19.4057 26.9049 18.9122 26.6383 18.555 26.2286C18.1977 25.8188 18.0009 25.2936 18.0009 24.75C18.0009 24.2064 18.1977 23.6812 18.555 23.2714C18.9122 22.8617 19.4057 22.5951 19.9442 22.521L20.2502 22.5Z" fill="url(#paint1_linear_9770_96)"/>
<defs>
<radialGradient id="paint0_radial_9770_96" cx="0" cy="0" r="1" gradientUnits="userSpaceOnUse" gradientTransform="translate(31.662 55.908) rotate(120.397) scale(51.7716)">
<stop stop-color="#00163E"/>
<stop offset="0.629808" stop-color="#0A3078"/>
<stop offset="1" stop-color="#325290"/>
</radialGradient>
<linearGradient id="paint1_linear_9770_96" x1="39.9002" y1="22.764" x2="38.3192" y2="39.075" gradientUnits="userSpaceOnUse">
<stop stop-color="#FDFDFD"/>
<stop offset="1" stop-color="#CCEAFF"/>
</linearGradient>
</defs>
</svg>
