<svg width="27" height="35" viewBox="0 0 27 35" fill="none" xmlns="http://www.w3.org/2000/svg">
<path d="M24.2885 15.7167C23.8477 15.1417 23.311 14.6433 22.8127 14.145C21.5285 12.995 20.0718 12.1708 18.8452 10.9633C15.9893 8.165 15.3568 3.54583 17.1777 0C15.3568 0.440833 13.766 1.4375 12.4052 2.53C7.44099 6.51667 5.48599 13.5508 7.82433 19.5883C7.90099 19.78 7.97766 19.9717 7.97766 20.2208C7.97766 20.6425 7.69016 21.0258 7.30683 21.1792C6.86599 21.3708 6.40599 21.2558 6.04183 20.9492C5.93304 20.858 5.84207 20.7476 5.77349 20.6233C3.60766 17.8825 3.26266 13.9533 4.71933 10.81C1.51849 13.4167 -0.225675 17.825 0.0234921 21.9842C0.138492 22.9425 0.253492 23.9008 0.579325 24.8592C0.847659 26.0092 1.36516 27.1592 1.94016 28.175C4.01016 31.4908 7.59433 33.8675 11.4468 34.3467C15.5485 34.8642 19.9377 34.1167 23.081 31.28C26.5885 28.0983 27.8152 23 26.0135 18.63L25.7643 18.1317C25.3618 17.25 24.2885 15.7167 24.2885 15.7167ZM18.2318 27.7917C17.6952 28.2517 16.8135 28.75 16.1235 28.9417C13.9768 29.7083 11.8302 28.635 10.5652 27.37C12.846 26.8333 14.2068 25.1467 14.6093 23.4408C14.9352 21.9075 14.3218 20.6425 14.0727 19.1667C13.8427 17.7483 13.881 16.5408 14.3985 15.2183C14.7627 15.9467 15.146 16.675 15.606 17.25C17.0818 19.1667 19.401 20.01 19.8993 22.6167C19.976 22.885 20.0143 23.1533 20.0143 23.4408C20.0718 25.0125 19.3818 26.7375 18.2318 27.7917Z" fill="black"/>
</svg>
