<svg width="19" height="24" viewBox="0 0 19 24" fill="none" xmlns="http://www.w3.org/2000/svg">
<path d="M16.8963 10.9333C16.5897 10.5333 16.2163 10.1867 15.8697 9.84C14.9763 9.04 13.963 8.46667 13.1097 7.62667C11.123 5.68 10.683 2.46667 11.9497 0C10.683 0.306667 9.57634 1 8.62968 1.76C5.17634 4.53333 3.81634 9.42667 5.44301 13.6267C5.49634 13.76 5.54968 13.8933 5.54968 14.0667C5.54968 14.36 5.34968 14.6267 5.08301 14.7333C4.77634 14.8667 4.45634 14.7867 4.20301 14.5733C4.12734 14.5099 4.06405 14.4331 4.01634 14.3467C2.50968 12.44 2.26968 9.70667 3.28301 7.52C1.05634 9.33333 -0.156991 12.4 0.0163423 15.2933C0.0963423 15.96 0.176342 16.6267 0.403009 17.2933C0.589676 18.0933 0.949676 18.8933 1.34968 19.6C2.78968 21.9067 5.28301 23.56 7.96301 23.8933C10.8163 24.2533 13.8697 23.7333 16.0563 21.76C18.4963 19.5467 19.3497 16 18.0963 12.96L17.923 12.6133C17.643 12 16.8963 10.9333 16.8963 10.9333ZM12.683 19.3333C12.3097 19.6533 11.6963 20 11.2163 20.1333C9.72301 20.6667 8.22968 19.92 7.34968 19.04C8.93634 18.6667 9.88301 17.4933 10.163 16.3067C10.3897 15.24 9.96301 14.36 9.78968 13.3333C9.62968 12.3467 9.65634 11.5067 10.0163 10.5867C10.2697 11.0933 10.5363 11.6 10.8563 12C11.883 13.3333 13.4963 13.92 13.843 15.7333C13.8963 15.92 13.923 16.1067 13.923 16.3067C13.963 17.4 13.483 18.6 12.683 19.3333Z" fill="#0A3078"/>
</svg>
