<svg width="25" height="24" viewBox="0 0 25 24" fill="none" xmlns="http://www.w3.org/2000/svg">
<path d="M10.5 0C9.30782 0.0042164 8.16568 0.479676 7.32268 1.32268C6.47968 2.16568 6.00422 3.30782 6 4.5C6 5.3 6.227 6.043 6.594 6.688C4.793 7.742 3.383 9.238 2.625 11H2.5C2.43397 11.0014 2.36834 10.9894 2.30706 10.9647C2.24578 10.9401 2.19012 10.9033 2.14341 10.8566C2.09671 10.8099 2.05993 10.7542 2.03529 10.6929C2.01064 10.6317 1.99864 10.566 2 10.5C2 10.324 2.09 10.184 2.219 10.094L1.062 8.469C0.734658 8.69714 0.467193 9.00088 0.28231 9.35446C0.0974262 9.70804 0.000582603 10.101 0 10.5C0 11.73 0.918 12.738 2.094 12.938C2.043 13.288 2 13.637 2 14C2 16.492 3.324 18.652 5.25 20.25C5.008 21.25 5.129 22.316 5.906 23.094C6.47965 23.6627 7.25472 23.9818 8.0625 23.9818C8.87028 23.9818 9.64535 23.6627 10.219 23.094L10.594 22.719C11.375 22.863 12.16 23 13 23C13.84 23 14.625 22.863 15.406 22.719L15.781 23.094C16.3546 23.6627 17.1297 23.9818 17.9375 23.9818C18.7453 23.9818 19.5204 23.6627 20.094 23.094C20.855 22.332 20.969 21.297 20.75 20.312C21.552 19.6608 22.2386 18.8792 22.781 18H25V10H22.719C22.3556 9.41083 21.9254 8.86556 21.437 8.375L22 5.281V4H21C21 4 18.598 4.04 16.562 5.563C16.0272 5.4095 15.4848 5.284 14.937 5.187C14.9777 4.96433 14.9987 4.73533 15 4.5C15 2.027 12.973 0 10.5 0ZM10.5 2C11.89 2 13 3.11 13 4.5C13 4.672 12.969 4.836 12.937 5C11.324 5.008 9.801 5.32 8.407 5.844C8.14037 5.4466 7.99864 4.97856 8 4.5C8 3.11 9.11 2 10.5 2ZM19.75 6.188C19.766 6.184 19.766 6.191 19.781 6.188L19.406 8.468L19.313 9L19.75 9.375C20.417 9.95399 20.9683 10.654 21.375 11.438L21.656 12H23V16H21.656L21.375 16.563C20.887 17.527 20.117 18.375 19.125 19.093L18.406 19.625L18.844 20.438C19.082 20.84 19.039 21.336 18.687 21.688C18.5921 21.787 18.4781 21.8657 18.352 21.9195C18.2258 21.9733 18.0901 22.0011 17.953 22.0011C17.8159 22.0011 17.6802 21.9733 17.554 21.9195C17.4279 21.8657 17.3139 21.787 17.219 21.688L16.5 20.968L16.094 20.594L15.562 20.719C14.75 20.906 13.887 21 13 21C12.1378 21.0027 11.2781 20.9084 10.437 20.719L9.907 20.594L9.5 20.969L8.781 21.687C8.68607 21.7861 8.57205 21.865 8.44582 21.9189C8.31959 21.9728 8.18375 22.0006 8.0465 22.0006C7.90925 22.0006 7.77341 21.9728 7.64718 21.9189C7.52095 21.865 7.40693 21.7861 7.312 21.687C7.14742 21.5276 7.04222 21.3168 7.01385 21.0895C6.98548 20.8621 7.03563 20.6319 7.156 20.437L7.594 19.625L6.875 19.094C5.066 17.78 4 15.988 4 14C4 10.258 7.91 7 13 7C14.23 7 15.402 7.184 16.469 7.531L17 7.719L17.438 7.344C18.152 6.707 19.035 6.364 19.75 6.188ZM19 12C18.45 12 18 12.45 18 13C18 13.55 18.45 14 19 14C19.55 14 20 13.55 20 13C20 12.45 19.55 12 19 12Z" fill="#0A3078"/>
</svg>
