<svg width="36" height="35" viewBox="0 0 36 35" fill="none" xmlns="http://www.w3.org/2000/svg">
<path d="M15.0938 0C13.38 0.00606108 11.7382 0.689535 10.5263 1.90135C9.31453 3.11316 8.63106 4.755 8.625 6.46875C8.625 7.61875 8.95131 8.68681 9.47888 9.614C6.88994 11.1291 4.86306 13.2796 3.77344 15.8125H3.59375C3.49883 15.8145 3.40448 15.7972 3.3164 15.7618C3.22831 15.7264 3.14829 15.6735 3.08116 15.6063C3.01402 15.5392 2.96115 15.4592 2.92572 15.3711C2.8903 15.283 2.87304 15.1887 2.875 15.0938C2.875 14.8407 3.00437 14.6395 3.18981 14.5101L1.52662 12.1742C1.05607 12.5021 0.671591 12.9388 0.40582 13.447C0.14005 13.9553 0.000837491 14.5202 0 15.0938C0 16.8619 1.31962 18.3109 3.01012 18.5984C2.93681 19.1015 2.875 19.6032 2.875 20.125C2.875 23.7073 4.77825 26.8123 7.54688 29.1094C7.199 30.5469 7.37294 32.0793 8.48987 33.1976C9.31449 34.0152 10.4287 34.4738 11.5898 34.4738C12.751 34.4738 13.8652 34.0152 14.6898 33.1976L15.2289 32.6586C16.3516 32.8656 17.48 33.0625 18.6875 33.0625C19.895 33.0625 21.0234 32.8656 22.1461 32.6586L22.6852 33.1976C23.5098 34.0152 24.624 34.4738 25.7852 34.4738C26.9463 34.4738 28.0605 34.0152 28.8851 33.1976C29.9791 32.1022 30.1429 30.6144 29.8281 29.1985C30.981 28.2624 31.968 27.1389 32.7477 25.875H35.9375V14.375H32.6586C32.1362 13.5281 31.5178 12.7442 30.8157 12.0391L31.625 7.59144V5.75H30.1875C30.1875 5.75 26.7346 5.8075 23.8079 7.99681C23.0392 7.77615 22.2595 7.59574 21.4719 7.45631C21.5304 7.13623 21.5606 6.80704 21.5625 6.46875C21.5625 2.91381 18.6487 0 15.0938 0ZM15.0938 2.875C17.0919 2.875 18.6875 4.47062 18.6875 6.46875C18.6875 6.716 18.6429 6.95175 18.5969 7.1875C16.2782 7.199 14.0889 7.6475 12.0851 8.40075C11.7018 7.82948 11.498 7.15668 11.5 6.46875C11.5 4.47062 13.0956 2.875 15.0938 2.875ZM28.3906 8.89525C28.4136 8.8895 28.4136 8.89956 28.4352 8.89525L27.8961 12.1728L27.7624 12.9375L28.3906 13.4766C29.3494 14.3089 30.142 15.3151 30.7266 16.4421L31.1305 17.25H33.0625V23H31.1305L30.7266 23.8093C30.0251 25.1951 28.9182 26.4141 27.4922 27.4462L26.4586 28.2109L27.0882 29.3796C27.4304 29.9575 27.3686 30.6705 26.8626 31.1765C26.7261 31.3188 26.5623 31.432 26.381 31.5093C26.1997 31.5867 26.0046 31.6265 25.8074 31.6265C25.6103 31.6265 25.4152 31.5867 25.2339 31.5093C25.0526 31.432 24.8888 31.3188 24.7523 31.1765L23.7188 30.1415L23.1351 29.6039L22.3704 29.7836C21.2031 30.0524 19.9626 30.1875 18.6875 30.1875C17.4481 30.1914 16.2123 30.0559 15.0032 29.7836L14.2413 29.6039L13.6562 30.1429L12.6227 31.1751C12.4862 31.3176 12.3223 31.431 12.1409 31.5084C11.9594 31.5859 11.7641 31.6258 11.5668 31.6258C11.3695 31.6258 11.1743 31.5859 10.9928 31.5084C10.8114 31.431 10.6475 31.3176 10.511 31.1751C10.2744 30.946 10.1232 30.6429 10.0824 30.3161C10.0416 29.9893 10.1137 29.6584 10.2867 29.3782L10.9164 28.2109L9.88281 27.4476C7.28237 25.5588 5.75 22.9827 5.75 20.125C5.75 14.7459 11.3706 10.0625 18.6875 10.0625C20.4556 10.0625 22.1404 10.327 23.6742 10.8258L24.4375 11.0961L25.0671 10.557C26.0935 9.64131 27.3628 9.14825 28.3906 8.89525ZM27.3125 17.25C26.5219 17.25 25.875 17.8969 25.875 18.6875C25.875 19.4781 26.5219 20.125 27.3125 20.125C28.1031 20.125 28.75 19.4781 28.75 18.6875C28.75 17.8969 28.1031 17.25 27.3125 17.25Z" fill="black"/>
</svg>
