<svg width="30" height="30" viewBox="0 0 30 30" fill="none" xmlns="http://www.w3.org/2000/svg">
<g filter="url(#filter0_d_9779_930)">
<path d="M15 0C12.0836 0.00330842 9.28766 1.1633 7.22548 3.22548C5.1633 5.28766 4.00331 8.08363 4 11C4 20.4125 14 27.5213 14.4263 27.8188C14.5944 27.9365 14.7947 27.9997 15 27.9997C15.2053 27.9997 15.4056 27.9365 15.5737 27.8188C16 27.5213 26 20.4125 26 11C25.9967 8.08363 24.8367 5.28766 22.7745 3.22548C20.7123 1.1633 17.9164 0.00330842 15 0ZM15 7C15.7911 7 16.5645 7.2346 17.2223 7.67412C17.8801 8.11365 18.3928 8.73836 18.6955 9.46927C18.9983 10.2002 19.0775 11.0044 18.9231 11.7804C18.7688 12.5563 18.3878 13.269 17.8284 13.8284C17.269 14.3878 16.5563 14.7688 15.7804 14.9231C15.0044 15.0775 14.2002 14.9983 13.4693 14.6955C12.7384 14.3928 12.1136 13.8801 11.6741 13.2223C11.2346 12.5645 11 11.7911 11 11C11 9.93913 11.4214 8.92172 12.1716 8.17157C12.9217 7.42143 13.9391 7 15 7Z" fill="#0A3078"/>
</g>
<defs>
<filter id="filter0_d_9779_930" x="0" y="0" width="30" height="35.9995" filterUnits="userSpaceOnUse" color-interpolation-filters="sRGB">
<feFlood flood-opacity="0" result="BackgroundImageFix"/>
<feColorMatrix in="SourceAlpha" type="matrix" values="0 0 0 0 0 0 0 0 0 0 0 0 0 0 0 0 0 0 127 0" result="hardAlpha"/>
<feOffset dy="4"/>
<feGaussianBlur stdDeviation="2"/>
<feComposite in2="hardAlpha" operator="out"/>
<feColorMatrix type="matrix" values="0 0 0 0 0 0 0 0 0 0 0 0 0 0 0 0 0 0 0.25 0"/>
<feBlend mode="normal" in2="BackgroundImageFix" result="effect1_dropShadow_9779_930"/>
<feBlend mode="normal" in="SourceGraphic" in2="effect1_dropShadow_9779_930" result="shape"/>
</filter>
</defs>
</svg>
