<svg width="46" height="46" viewBox="0 0 46 46" fill="none" xmlns="http://www.w3.org/2000/svg">
<path d="M31.625 20.125C31.625 24.8975 27.7725 28.75 23 28.75C18.2275 28.75 14.375 24.8975 14.375 20.125C14.375 15.3525 18.2275 11.5 23 11.5C27.7725 11.5 31.625 15.3525 31.625 20.125Z" fill="#0A3078"/>
<path fill-rule="evenodd" clip-rule="evenodd" d="M46 23C46 35.7075 35.7075 46 23 46C10.2925 46 0 35.7075 0 23C0 10.2925 10.2925 0 23 0C35.7075 0 46 10.2925 46 23ZM11.5 39.5312C11.96 38.7665 16.4163 31.625 22.9712 31.625C29.4975 31.625 33.9825 38.7837 34.4425 39.5312C37.1159 37.6826 39.3002 35.2122 40.8076 32.3326C42.315 29.453 43.1004 26.2503 43.0962 23C43.0962 11.8738 34.0975 2.875 22.9712 2.875C11.845 2.875 2.84625 11.8738 2.84625 23C2.84625 29.8425 6.2675 35.9087 11.5 39.5312Z" fill="#0A3078"/>
</svg>
