<svg width="42" height="39" viewBox="0 0 42 39" fill="none" xmlns="http://www.w3.org/2000/svg">
<g filter="url(#filter0_d_2507_996)">
<ellipse cx="21" cy="16.5" rx="17" ry="16.5" fill="white"/>
<path d="M21 0.5C30.1269 0.5 37.5 7.67741 37.5 16.5C37.5 25.3226 30.1269 32.5 21 32.5C11.8731 32.5 4.5 25.3226 4.5 16.5C4.5 7.67741 11.8731 0.5 21 0.5Z" stroke="#1359DE"/>
</g>
<path d="M25.67 16.13C27.04 17.06 28 18.32 28 20V23H32V20C32 17.82 28.43 16.53 25.67 16.13ZM24 15C26.21 15 28 13.21 28 11C28 8.79 26.21 7 24 7C23.53 7 23.09 7.1 22.67 7.24C23.5305 8.30422 24 9.6314 24 11C24 12.3686 23.5305 13.6958 22.67 14.76C23.09 14.9 23.53 15 24 15ZM18 15C20.21 15 22 13.21 22 11C22 8.79 20.21 7 18 7C15.79 7 14 8.79 14 11C14 13.21 15.79 15 18 15ZM18 9C19.1 9 20 9.9 20 11C20 12.1 19.1 13 18 13C16.9 13 16 12.1 16 11C16 9.9 16.9 9 18 9ZM18 16C15.33 16 10 17.34 10 20V23H26V20C26 17.34 20.67 16 18 16ZM24 21H12V20.01C12.2 19.29 15.3 18 18 18C20.7 18 23.8 19.29 24 20V21Z" fill="#1359DE"/>
<defs>
<filter id="filter0_d_2507_996" x="0" y="0" width="42" height="41" filterUnits="userSpaceOnUse" color-interpolation-filters="sRGB">
<feFlood flood-opacity="0" result="BackgroundImageFix"/>
<feColorMatrix in="SourceAlpha" type="matrix" values="0 0 0 0 0 0 0 0 0 0 0 0 0 0 0 0 0 0 127 0" result="hardAlpha"/>
<feOffset dy="4"/>
<feGaussianBlur stdDeviation="2"/>
<feComposite in2="hardAlpha" operator="out"/>
<feColorMatrix type="matrix" values="0 0 0 0 0 0 0 0 0 0 0 0 0 0 0 0 0 0 0.25 0"/>
<feBlend mode="normal" in2="BackgroundImageFix" result="effect1_dropShadow_2507_996"/>
<feBlend mode="normal" in="SourceGraphic" in2="effect1_dropShadow_2507_996" result="shape"/>
</filter>
</defs>
</svg>
