<svg width="38" height="35" viewBox="0 0 38 35" fill="none" xmlns="http://www.w3.org/2000/svg">
<path opacity="0.2" d="M35.9375 23V31.625C35.9375 32.0062 35.786 32.3719 35.5165 32.6415C35.2469 32.9111 34.8812 33.0625 34.5 33.0625H2.875C2.49375 33.0625 2.12812 32.9111 1.85853 32.6415C1.58895 32.3719 1.4375 32.0062 1.4375 31.625V23H35.9375Z" fill="#0A3078"/>
<path d="M34.5 5.75H27.3125V4.3125C27.3125 3.16875 26.8581 2.07185 26.0494 1.2631C25.2406 0.454352 24.1437 0 23 0H14.375C13.2313 0 12.1344 0.454352 11.3256 1.2631C10.5169 2.07185 10.0625 3.16875 10.0625 4.3125V5.75H2.875C2.1125 5.75 1.38123 6.0529 0.842068 6.59207C0.302901 7.13124 0 7.8625 0 8.625V31.625C0 32.3875 0.302901 33.1188 0.842068 33.6579C1.38123 34.1971 2.1125 34.5 2.875 34.5H34.5C35.2625 34.5 35.9938 34.1971 36.5329 33.6579C37.0721 33.1188 37.375 32.3875 37.375 31.625V8.625C37.375 7.8625 37.0721 7.13124 36.5329 6.59207C35.9938 6.0529 35.2625 5.75 34.5 5.75ZM12.9375 4.3125C12.9375 3.93125 13.089 3.56562 13.3585 3.29603C13.6281 3.02645 13.9938 2.875 14.375 2.875H23C23.3812 2.875 23.7469 3.02645 24.0165 3.29603C24.2861 3.56562 24.4375 3.93125 24.4375 4.3125V5.75H12.9375V4.3125ZM34.5 8.625V21.5625H2.875V8.625H34.5ZM34.5 31.625H2.875V24.4375H34.5V31.625Z" fill="#0A3078"/>
</svg>
